<svg width="32" height="33" viewBox="0 0 32 33" fill="none" xmlns="http://www.w3.org/2000/svg">
<path fill-rule="evenodd" clip-rule="evenodd" d="M31.2063 22.9864C30.481 21.5257 29.5252 20.1913 28.3757 19.0344C27.9912 18.5999 27.5886 18.1818 27.169 17.7811L27.1183 17.7317C26.9626 17.5804 26.8088 17.4271 26.657 17.2717C28.2285 15.0865 29.5732 12.7469 30.6703 10.2891L30.7143 10.1904L30.745 10.0864C30.8903 9.6024 31.0557 8.6824 30.469 7.8504C29.861 6.99174 28.889 6.83707 28.237 6.83707H25.241C24.6137 6.80848 23.9934 6.97907 23.4689 7.32442C22.9444 7.66976 22.5426 8.17217 22.321 8.75974C21.6762 10.2953 20.869 11.7574 19.913 13.1211V9.6104C19.913 9.15707 19.8703 8.39707 19.3837 7.75707C18.8023 6.98907 17.961 6.83707 17.377 6.83707H12.6223C12.0019 6.8228 11.3997 7.04769 10.9406 7.46517C10.4814 7.88265 10.2004 8.46075 10.1557 9.07974L10.1517 9.13974V9.19974C10.1517 9.8464 10.4077 10.3237 10.613 10.6237C10.705 10.7584 10.8023 10.8811 10.865 10.9584L10.8783 10.9757C10.945 11.0584 10.989 11.1131 11.033 11.1744C11.1503 11.3317 11.317 11.5771 11.365 12.2091V14.1731C10.4106 12.5748 9.62799 10.8801 9.03034 9.11707L9.01967 9.08774L9.00901 9.05974C8.84634 8.6344 8.58634 8.01574 8.06501 7.54374C7.45701 6.9904 6.73701 6.83707 6.08234 6.83707H3.04234C2.37967 6.83707 1.58101 6.99174 0.985008 7.61974C0.399675 8.2384 0.333008 8.97974 0.333008 9.37174V9.5504L0.370341 9.72374C1.21208 13.6314 2.94665 17.2914 5.43834 20.4171C6.57751 22.2135 8.12405 23.7161 9.95254 24.803C11.781 25.89 13.84 26.5306 15.9623 26.6731L16.017 26.6771H16.073C17.041 26.6771 18.0503 26.5931 18.809 26.0877C19.8317 25.4051 19.913 24.3584 19.913 23.8357V22.3184C20.1757 22.5317 20.501 22.8171 20.8997 23.2011C21.3823 23.6837 21.7663 24.1024 22.0957 24.4677L22.2717 24.6624C22.5277 24.9477 22.7797 25.2291 23.009 25.4597C23.297 25.7491 23.653 26.0677 24.0983 26.3037C24.5823 26.5584 25.0903 26.6744 25.629 26.6744H28.6703C29.3117 26.6744 30.2303 26.5224 30.877 25.7731C31.581 24.9571 31.5277 23.9557 31.3063 23.2371L31.2663 23.1077L31.2063 22.9864ZM23.5797 23.1277C23.1664 22.6658 22.741 22.215 22.3037 21.7757L22.2997 21.7717C20.4903 20.0277 19.6463 19.7251 19.049 19.7251C18.7303 19.7251 18.3797 19.7597 18.1517 20.0451C18.049 20.1812 17.9817 20.3406 17.9557 20.5091C17.9235 20.7047 17.9093 20.9029 17.913 21.1011V23.8357C17.913 24.1757 17.857 24.3184 17.6997 24.4224C17.4903 24.5624 17.0437 24.6757 16.085 24.6757C14.264 24.5518 12.4983 23.9975 10.9332 23.0582C9.36817 22.119 8.04837 20.8217 7.08234 19.2731L7.07167 19.2557L7.05834 19.2397C4.73716 16.3506 3.11947 12.9614 2.33301 9.33974C2.33834 9.1664 2.37567 9.06107 2.43701 8.99707C2.49967 8.9304 2.65301 8.83707 3.04234 8.83707H6.08234C6.41967 8.83707 6.59567 8.91174 6.72234 9.02507C6.86367 9.15574 6.98901 9.37574 7.13834 9.76774C7.88501 11.9624 8.89301 14.0157 9.84901 15.5237C10.3263 16.2784 10.7957 16.9064 11.2197 17.3504C11.4317 17.5717 11.6383 17.7557 11.837 17.8864C12.0277 18.0117 12.245 18.1117 12.469 18.1117C12.5863 18.1117 12.7237 18.0984 12.8557 18.0411C12.9982 17.9781 13.1156 17.8692 13.189 17.7317C13.3263 17.4811 13.365 17.1117 13.365 16.6277V12.1304C13.2943 11.0397 12.965 10.4251 12.645 9.98907C12.5802 9.90186 12.5135 9.81607 12.445 9.73174L12.4277 9.7104C12.3708 9.64134 12.3166 9.57018 12.265 9.49707C12.1994 9.41553 12.1599 9.31609 12.1517 9.21174C12.1621 9.10579 12.2127 9.00784 12.293 8.93794C12.3733 8.86804 12.4773 8.83148 12.5837 8.83574H17.377C17.6517 8.83574 17.7437 8.9024 17.7903 8.96507C17.857 9.05174 17.913 9.23174 17.913 9.6104V15.6477C17.913 16.3651 18.2437 16.8504 18.7237 16.8504C19.2757 16.8504 19.6743 16.5157 20.3703 15.8197L20.3823 15.8064L20.393 15.7944C21.9543 13.8908 23.2299 11.7698 24.1797 9.4984L24.185 9.4824C24.2564 9.28172 24.3914 9.10989 24.5696 8.99313C24.7477 8.87637 24.9592 8.8211 25.1717 8.83574H28.2383C28.6543 8.83574 28.7903 8.9424 28.8357 9.00507C28.8823 9.07174 28.9157 9.2144 28.8357 9.4944C27.7405 11.9429 26.3865 14.2672 24.797 16.4277L24.7863 16.4437C24.633 16.6797 24.4637 16.9411 24.4397 17.2397C24.413 17.5624 24.5517 17.8544 24.7957 18.1691C24.973 18.4304 25.3397 18.7891 25.7117 19.1531L25.7463 19.1877C26.1357 19.5691 26.5583 19.9824 26.897 20.3824L26.9063 20.3917L26.9157 20.4024C27.9256 21.4097 28.7653 22.5742 29.4023 23.8504C29.5037 24.1971 29.4423 24.3757 29.3623 24.4677C29.2703 24.5744 29.0637 24.6744 28.6717 24.6744H25.629C25.4216 24.6795 25.2164 24.6313 25.033 24.5344C24.8082 24.4036 24.6042 24.2401 24.4277 24.0491C24.237 23.8584 24.0303 23.6277 23.777 23.3464L23.581 23.1277H23.5797Z" fill="black"/>
</svg>
