<svg width="25" height="24" viewBox="0 0 25 24" fill="none" xmlns="http://www.w3.org/2000/svg">
<path d="M13.5001 12.373V17.623C13.5001 17.8219 13.421 18.0127 13.2804 18.1533C13.1397 18.294 12.949 18.373 12.7501 18.373C12.5511 18.373 12.3604 18.294 12.2197 18.1533C12.0791 18.0127 12.0001 17.8219 12.0001 17.623V12.373C12.0001 12.1741 12.0791 11.9833 12.2197 11.8427C12.3604 11.702 12.5511 11.623 12.7501 11.623C12.949 11.623 13.1397 11.702 13.2804 11.8427C13.421 11.9833 13.5001 12.1741 13.5001 12.373ZM23.2369 10.3208L21.9376 20.0717C21.8894 20.4321 21.712 20.7627 21.4383 21.0021C21.1646 21.2414 20.8133 21.3732 20.4497 21.373H5.05037C4.6868 21.3732 4.3355 21.2414 4.06183 21.0021C3.78816 20.7627 3.61074 20.4321 3.56256 20.0717L2.26225 10.3217C2.23391 10.1098 2.25123 9.89418 2.31304 9.68945C2.37485 9.48472 2.47972 9.29558 2.62062 9.1347C2.76152 8.97382 2.9352 8.84493 3.12999 8.75667C3.32479 8.66842 3.5362 8.62284 3.75006 8.62298H7.15975L12.1876 2.87892C12.2579 2.79912 12.3445 2.7352 12.4415 2.69142C12.5385 2.64764 12.6437 2.625 12.7501 2.625C12.8565 2.625 12.9617 2.64764 13.0586 2.69142C13.1556 2.7352 13.2422 2.79912 13.3126 2.87892L18.3404 8.62298H21.7501C21.9637 8.62312 22.1748 8.66888 22.3693 8.7572C22.5638 8.84551 22.7372 8.97435 22.8778 9.1351C23.0185 9.29584 23.1233 9.48477 23.185 9.68925C23.2468 9.89374 23.2642 10.1091 23.236 10.3208H23.2369ZM9.15287 8.62298H16.3472L12.7501 4.51205L9.15287 8.62298ZM21.7501 10.123H3.75006L5.05037 19.873H20.4497L21.7501 10.123ZM16.9538 12.298L16.4288 17.548C16.4184 17.6463 16.4276 17.7457 16.4558 17.8404C16.4839 17.9351 16.5305 18.0234 16.5929 18.1C16.6553 18.1767 16.7322 18.2403 16.8192 18.2871C16.9063 18.334 17.0017 18.3632 17.1001 18.373C17.1254 18.3744 17.1507 18.3744 17.176 18.373C17.3618 18.3728 17.5408 18.3036 17.6785 18.1789C17.8162 18.0542 17.9027 17.8828 17.9213 17.698L18.4463 12.448C18.4662 12.2501 18.4067 12.0524 18.2808 11.8983C18.1549 11.7443 17.973 11.6466 17.7751 11.6267C17.5771 11.6068 17.3794 11.6664 17.2254 11.7923C17.0714 11.9182 16.9737 12.1001 16.9538 12.298ZM8.54631 12.298C8.52642 12.1001 8.42872 11.9182 8.27471 11.7923C8.12069 11.6664 7.92298 11.6068 7.72506 11.6267C7.52714 11.6466 7.34523 11.7443 7.21935 11.8983C7.09347 12.0524 7.03392 12.2501 7.05381 12.448L7.57881 17.698C7.59747 17.8836 7.68465 18.0557 7.82333 18.1805C7.96201 18.3053 8.14224 18.3739 8.32881 18.373C8.3541 18.3744 8.37946 18.3744 8.40475 18.373C8.50275 18.3631 8.59785 18.3341 8.68462 18.2875C8.77139 18.2409 8.84813 18.1776 8.91046 18.1014C8.9728 18.0251 9.0195 17.9373 9.0479 17.843C9.0763 17.7487 9.08585 17.6497 9.076 17.5517L8.54631 12.298Z" fill="black"/>
</svg>
