<svg width="32" height="33" viewBox="0 0 32 33" fill="none" xmlns="http://www.w3.org/2000/svg">
<path d="M25.4001 7.04707C24.1777 5.81231 22.7216 4.8333 21.1169 4.16714C19.5122 3.50098 17.7909 3.16102 16.0534 3.16707C8.7734 3.16707 2.84007 9.1004 2.84007 16.3804C2.84007 18.7137 3.4534 20.9804 4.60007 22.9804L2.7334 29.8337L9.7334 27.9937C11.6667 29.0471 13.8401 29.6071 16.0534 29.6071C23.3334 29.6071 29.2667 23.6737 29.2667 16.3937C29.2667 12.8604 27.8934 9.5404 25.4001 7.04707ZM16.0534 27.3671C14.0801 27.3671 12.1467 26.8337 10.4534 25.8337L10.0534 25.5937L5.8934 26.6871L7.00006 22.6337L6.7334 22.2204C5.63706 20.4697 5.05492 18.4461 5.0534 16.3804C5.0534 10.3271 9.98673 5.39374 16.0401 5.39374C18.9734 5.39374 21.7334 6.54041 23.8001 8.62041C24.8234 9.63902 25.6343 10.8506 26.1859 12.185C26.7375 13.5193 27.0188 14.9499 27.0134 16.3937C27.0401 22.4471 22.1067 27.3671 16.0534 27.3671ZM22.0801 19.1537C21.7467 18.9937 20.1201 18.1937 19.8267 18.0737C19.5201 17.9671 19.3067 17.9137 19.0801 18.2337C18.8534 18.5671 18.2267 19.3137 18.0401 19.5271C17.8534 19.7537 17.6534 19.7804 17.3201 19.6071C16.9867 19.4471 15.9201 19.0871 14.6667 17.9671C13.6801 17.0871 13.0267 16.0071 12.8267 15.6737C12.6401 15.3404 12.8001 15.1671 12.9734 14.9937C13.1201 14.8471 13.3067 14.6071 13.4667 14.4204C13.6267 14.2337 13.6934 14.0871 13.8001 13.8737C13.9067 13.6471 13.8534 13.4604 13.7734 13.3004C13.6934 13.1404 13.0267 11.5137 12.7601 10.8471C12.4934 10.2071 12.2134 10.2871 12.0134 10.2737H11.3734C11.1467 10.2737 10.8001 10.3537 10.4934 10.6871C10.2001 11.0204 9.34673 11.8204 9.34673 13.4471C9.34673 15.0737 10.5334 16.6471 10.6934 16.8604C10.8534 17.0871 13.0267 20.4204 16.3334 21.8471C17.1201 22.1937 17.7334 22.3937 18.2134 22.5404C19.0001 22.7937 19.7201 22.7537 20.2934 22.6737C20.9334 22.5804 22.2534 21.8737 22.5201 21.1004C22.8001 20.3271 22.8001 19.6737 22.7067 19.5271C22.6134 19.3804 22.4134 19.3137 22.0801 19.1537Z" fill="black"/>
</svg>
