<svg width="27" height="27" viewBox="0 0 27 27" fill="none" xmlns="http://www.w3.org/2000/svg">
<g clip-path="url(#clip0_91_4287)">
<path fill-rule="evenodd" clip-rule="evenodd" d="M7.87508 5.0625C7.87508 4.31658 8.17139 3.60121 8.69884 3.07376C9.22629 2.54632 9.94166 2.25 10.6876 2.25C11.4335 2.25 12.1489 2.54632 12.6763 3.07376C13.2038 3.60121 13.5001 4.31658 13.5001 5.0625V10.2431L19.6223 10.9237C20.7228 11.0461 21.7396 11.5699 22.4781 12.3949C23.2166 13.22 23.6249 14.2883 23.6251 15.3956V15.75C23.6251 18.1369 22.6769 20.4261 20.989 22.114C19.3012 23.8018 17.012 24.75 14.6251 24.75H13.8668C12.1955 24.7499 10.5573 24.2845 9.13558 23.4059C7.71389 22.5272 6.56494 21.2701 5.81745 19.7752L2.6202 13.3807C2.2152 12.5708 2.51558 11.4874 3.46058 11.0992C4.63395 10.6189 5.74883 10.5289 6.89745 11.1128C7.23045 11.2815 7.55445 11.5031 7.87508 11.7697V5.0625ZM10.6876 4.5C10.5384 4.5 10.3953 4.55926 10.2898 4.66475C10.1843 4.77024 10.1251 4.91332 10.1251 5.0625V14.625C10.1249 14.8579 10.0524 15.085 9.91768 15.275C9.78293 15.465 9.59254 15.6084 9.37278 15.6856C9.15303 15.7628 8.91474 15.7698 8.6908 15.7058C8.46687 15.6417 8.26833 15.5098 8.12258 15.3281C7.08195 14.0276 6.41595 13.3931 5.8782 13.1186C5.59086 12.9639 5.25762 12.9172 4.93883 12.987L7.83008 18.7695C8.39075 19.8905 9.25245 20.8332 10.3187 21.4921C11.3849 22.1509 12.6135 22.5 13.8668 22.5H14.6251C16.4153 22.5 18.1322 21.7888 19.398 20.523C20.6639 19.2571 21.3751 17.5402 21.3751 15.75V15.3956C21.3751 14.8417 21.1708 14.3073 20.8013 13.8946C20.4319 13.4819 19.9231 13.2201 19.3726 13.1591L13.2526 12.4796C12.702 12.4187 12.1933 12.1568 11.8238 11.7442C11.4543 11.3315 11.25 10.797 11.2501 10.2431V5.0625C11.2501 4.91332 11.1908 4.77024 11.0853 4.66475C10.9798 4.55926 10.8368 4.5 10.6876 4.5Z" fill="black"/>
</g>
<defs>
<clipPath id="clip0_91_4287">
<rect width="27" height="27" fill="white"/>
</clipPath>
</defs>
</svg>
