<svg width="32" height="33" viewBox="0 0 32 33" fill="none" xmlns="http://www.w3.org/2000/svg">
<path d="M17.0004 16.9973V23.9973C17.0004 24.2625 16.8951 24.5169 16.7075 24.7044C16.52 24.892 16.2656 24.9973 16.0004 24.9973C15.7352 24.9973 15.4808 24.892 15.2933 24.7044C15.1058 24.5169 15.0004 24.2625 15.0004 23.9973V16.9973C15.0004 16.7321 15.1058 16.4777 15.2933 16.2902C15.4808 16.1027 15.7352 15.9973 16.0004 15.9973C16.2656 15.9973 16.52 16.1027 16.7075 16.2902C16.8951 16.4777 17.0004 16.7321 17.0004 16.9973ZM29.9829 14.2611L28.2504 27.2623C28.1862 27.7428 27.9496 28.1836 27.5847 28.5028C27.2198 28.8219 26.7514 28.9976 26.2667 28.9973H5.73416C5.24939 28.9976 4.781 28.8219 4.4161 28.5028C4.0512 28.1836 3.81464 27.7428 3.75041 27.2623L2.01666 14.2623C1.97888 13.9797 2.00197 13.6922 2.08438 13.4193C2.16679 13.1463 2.30662 12.8941 2.49449 12.6796C2.68236 12.4651 2.91392 12.2932 3.17365 12.1756C3.43338 12.0579 3.71527 11.9971 4.00041 11.9973H8.54666L15.2504 4.33856C15.3442 4.23216 15.4597 4.14693 15.589 4.08856C15.7183 4.03019 15.8585 4 16.0004 4C16.1423 4 16.2825 4.03019 16.4118 4.08856C16.5412 4.14693 16.6566 4.23216 16.7504 4.33856L23.4542 11.9973H28.0004C28.2852 11.9975 28.5667 12.0585 28.826 12.1763C29.0854 12.294 29.3165 12.4658 29.5041 12.6801C29.6917 12.8944 29.8313 13.1464 29.9137 13.419C29.996 13.6916 30.0192 13.9787 29.9817 14.2611H29.9829ZM11.2042 11.9973H20.7967L16.0004 6.51606L11.2042 11.9973ZM28.0004 13.9973H4.00041L5.73416 26.9973H26.2667L28.0004 13.9973ZM21.6054 16.8973L20.9054 23.8973C20.8916 24.0284 20.9038 24.1609 20.9413 24.2872C20.9789 24.4135 21.041 24.5312 21.1242 24.6334C21.2074 24.7356 21.3099 24.8204 21.426 24.8828C21.542 24.9453 21.6693 24.9842 21.8004 24.9973C21.8341 24.9992 21.8679 24.9992 21.9017 24.9973C22.1493 24.997 22.3881 24.9048 22.5717 24.7385C22.7553 24.5722 22.8706 24.3438 22.8954 24.0973L23.5954 17.0973C23.6219 16.8334 23.5425 16.5698 23.3747 16.3645C23.2068 16.1591 22.9643 16.0288 22.7004 16.0023C22.4365 15.9758 22.1729 16.0552 21.9675 16.223C21.7622 16.3909 21.6319 16.6334 21.6054 16.8973ZM10.3954 16.8973C10.3689 16.6334 10.2386 16.3909 10.0333 16.223C9.82792 16.0552 9.5643 15.9758 9.30041 16.0023C9.03652 16.0288 8.79397 16.1591 8.62613 16.3645C8.45828 16.5698 8.37889 16.8334 8.40541 17.0973L9.10541 24.0973C9.13028 24.3448 9.24652 24.5742 9.43143 24.7406C9.61634 24.907 9.85664 24.9986 10.1054 24.9973C10.1391 24.9992 10.1729 24.9992 10.2067 24.9973C10.3373 24.9842 10.4641 24.9454 10.5798 24.8833C10.6955 24.8212 10.7978 24.7369 10.8809 24.6352C10.9641 24.5335 11.0263 24.4164 11.0642 24.2907C11.1021 24.165 11.1148 24.033 11.1017 23.9023L10.3954 16.8973Z" fill="black"/>
</svg>
