<svg width="32" height="33" viewBox="0 0 32 33" fill="none" xmlns="http://www.w3.org/2000/svg">
<path d="M27.6988 20.5376L21.7938 17.8913C21.5262 17.7767 21.2343 17.7306 20.9444 17.7572C20.6546 17.7838 20.3759 17.8824 20.1338 18.0438C20.1092 18.0596 20.0858 18.0771 20.0638 18.0963L16.9775 20.7213C16.9455 20.7388 16.9098 20.7485 16.8734 20.7498C16.837 20.7512 16.8007 20.744 16.7675 20.7288C14.7838 19.7713 12.7288 17.7288 11.7675 15.7726C11.7515 15.7399 11.7432 15.704 11.7432 15.6676C11.7432 15.6312 11.7515 15.5953 11.7675 15.5626L14.4013 12.4376C14.4202 12.4144 14.4377 12.3902 14.4538 12.3651C14.613 12.122 14.7092 11.843 14.7336 11.5534C14.7581 11.2638 14.71 10.9727 14.5938 10.7063L11.9663 4.81132C11.8171 4.46333 11.559 4.17312 11.2308 3.98425C10.9027 3.79538 10.5221 3.71803 10.1463 3.76382C8.5128 3.97857 7.01341 4.78074 5.92829 6.02045C4.84318 7.26015 4.24659 8.85255 4.25001 10.5001C4.25001 20.2876 12.2125 28.2501 22 28.2501C23.6475 28.2532 25.2397 27.6565 26.4794 26.5715C27.719 25.4864 28.5213 23.9872 28.7363 22.3538C28.782 21.9797 28.7057 21.6009 28.5187 21.2736C28.3318 20.9464 28.0442 20.6882 27.6988 20.5376ZM22 26.7501C13.04 26.7501 5.75001 19.4601 5.75001 10.5001C5.74584 9.21748 6.20877 7.97725 7.05232 7.01108C7.89587 6.04492 9.06233 5.41893 10.3338 5.25007H10.3625C10.4129 5.25101 10.4618 5.26715 10.5028 5.29637C10.5439 5.32559 10.5751 5.36653 10.5925 5.41382L13.23 11.3026C13.2451 11.3353 13.2528 11.3709 13.2528 11.4069C13.2528 11.443 13.2451 11.4786 13.23 11.5113L10.5913 14.6438C10.5716 14.6662 10.5536 14.69 10.5375 14.7151C10.3724 14.9671 10.2752 15.2576 10.2552 15.5583C10.2353 15.8589 10.2934 16.1597 10.4238 16.4313C11.5325 18.7013 13.82 20.9713 16.115 22.0801C16.3883 22.2098 16.6905 22.2664 16.9921 22.2445C17.2938 22.2226 17.5846 22.1229 17.8363 21.9551C17.86 21.9388 17.8838 21.9213 17.9063 21.9026L20.9913 19.2776C21.0217 19.2612 21.0554 19.2516 21.0899 19.2494C21.1244 19.2473 21.159 19.2526 21.1913 19.2651L27.0975 21.9113C27.1458 21.9319 27.1863 21.9671 27.2135 22.0119C27.2406 22.0568 27.253 22.1091 27.2488 22.1613C27.0808 23.4333 26.4554 24.6007 25.4894 25.4452C24.5235 26.2897 23.2831 26.7535 22 26.7501Z" fill="black"/>
</svg>
